<svg width="149" height="50" viewBox="0 0 149 50" fill="none" xmlns="http://www.w3.org/2000/svg">
<path d="M83.3667 44.5059H0V49.2376H83.3667V44.5059Z" fill="#BDBDBD"/>
<path d="M149 0H84.5762V4.73174H149V0Z" fill="#BDBDBD"/>
<path d="M43.8544 28.2668H38.4528L41.1659 20.4299L43.8544 28.2668ZM38.5761 11.6318L28.6855 37.7303H35.049L36.9482 32.9986H45.4822L47.5047 37.7303H53.7202L43.583 11.6318H38.5761Z" fill="#BDBDBD"/>
<path d="M91.6051 28.2668H86.2035L88.9166 20.4299L91.6051 28.2668ZM86.3268 11.6318L76.4609 37.7303H82.8244L84.7236 32.9986H93.2329L95.2554 37.7303H101.471L91.3337 11.6318H86.3268Z" fill="#BDBDBD"/>
<path d="M61.0206 17.0537H66.1508C66.6935 17.0537 69.1353 17.5959 69.1353 20.3068C69.1353 23.0177 66.5701 23.5598 66.1508 23.5598H61.0206V17.0537ZM61.0206 37.6072V28.6859H63.4624L68.0747 37.6072H74.8328L69.4312 27.9958C69.4312 27.9958 75.1041 26.0982 75.1041 20.1589C75.1041 11.5087 66.5701 11.6319 63.8817 11.6319H55.3477V37.7304H61.0206V37.6072Z" fill="#BDBDBD"/>
<path d="M135.729 32.3332V27.3303H148.037V21.9086H135.729V17.0536H148.851V11.6318H130.18V37.5824H148.851V32.3085H135.729V32.3332Z" fill="#BDBDBD"/>
<path d="M14.6262 27.8721H21.113C20.5704 29.893 17.8573 32.4806 13.9356 32.4806C9.74257 32.4806 5.9442 29.2276 5.9442 24.6437C5.9442 19.7641 9.74257 16.5357 14.2069 16.5357C18.0053 16.5357 20.2991 19.5177 20.2991 19.5177L24.7634 15.9935C24.7634 15.9935 21.3843 10.8675 13.9356 10.8675C5.9442 10.8182 0 17.0532 0 24.8902C0 32.3328 6.09219 38.42 13.6643 38.42C18.2766 38.42 20.6937 36.9413 22.0503 35.5858V37.7546H26.9339V22.8693H14.7495V27.8721H14.6262Z" fill="#BDBDBD"/>
<path d="M114.889 27.874H121.375C120.833 29.8949 118.12 32.4825 114.198 32.4825C110.005 32.4825 106.207 29.2295 106.207 24.6456C106.207 19.766 110.005 16.5376 114.469 16.5376C118.268 16.5376 120.562 19.5196 120.562 19.5196L125.05 15.9708C125.05 15.9708 121.671 10.8447 114.223 10.8447C106.231 10.8447 100.287 17.0551 100.287 24.7688C100.287 32.2114 106.379 38.2986 113.951 38.2986C118.564 38.2986 120.981 36.82 122.337 35.4645V37.6332H127.221V22.7233H115.037V27.8494L114.889 27.874Z" fill="#BDBDBD"/>
</svg>
