<svg width="16" height="16" viewBox="0 0 16 16" fill="none" xmlns="http://www.w3.org/2000/svg">
<path d="M15.875 14.0221L11.9501 10.1092C12.5742 9.1613 12.9387 8.02961 12.9387 6.81441C12.9387 3.49454 10.2327 0.796875 6.90683 0.796875C3.58095 0.796875 0.875 3.49454 0.875 6.81024C0.875 10.1259 3.58095 12.8236 6.90683 12.8236C8.10482 12.8236 9.22323 12.4728 10.1615 11.8715L14.099 15.7969L15.875 14.0221ZM2.96939 6.81024C2.96939 4.6471 4.73705 2.88485 6.90683 2.88485C9.07662 2.88485 10.8443 4.6471 10.8443 6.81024C10.8443 8.97338 9.07662 10.7356 6.90683 10.7356C4.73705 10.7356 2.96939 8.97338 2.96939 6.81024Z" fill="white"/>
<path d="M15.875 14.0221L11.9501 10.1092C12.5742 9.1613 12.9387 8.02961 12.9387 6.81441C12.9387 3.49454 10.2327 0.796875 6.90683 0.796875C3.58095 0.796875 0.875 3.49454 0.875 6.81024C0.875 10.1259 3.58095 12.8236 6.90683 12.8236C8.10482 12.8236 9.22323 12.4728 10.1615 11.8715L14.099 15.7969L15.875 14.0221ZM2.96939 6.81024C2.96939 4.6471 4.73705 2.88485 6.90683 2.88485C9.07662 2.88485 10.8443 4.6471 10.8443 6.81024C10.8443 8.97338 9.07662 10.7356 6.90683 10.7356C4.73705 10.7356 2.96939 8.97338 2.96939 6.81024Z" fill="white"/>
<path d="M15.875 14.0221L11.9501 10.1092C12.5742 9.1613 12.9387 8.02961 12.9387 6.81441C12.9387 3.49454 10.2327 0.796875 6.90683 0.796875C3.58095 0.796875 0.875 3.49454 0.875 6.81024C0.875 10.1259 3.58095 12.8236 6.90683 12.8236C8.10482 12.8236 9.22323 12.4728 10.1615 11.8715L14.099 15.7969L15.875 14.0221ZM2.96939 6.81024C2.96939 4.6471 4.73705 2.88485 6.90683 2.88485C9.07662 2.88485 10.8443 4.6471 10.8443 6.81024C10.8443 8.97338 9.07662 10.7356 6.90683 10.7356C4.73705 10.7356 2.96939 8.97338 2.96939 6.81024Z" fill="white"/>
</svg>
