<svg width="20" height="17" viewBox="0 0 20 17" fill="none" xmlns="http://www.w3.org/2000/svg">
<path d="M1.60906 7.40029L13.0869 2.69939C14.2199 2.20971 18.0623 0.64275 18.0623 0.64275C18.0623 0.64275 19.8357 -0.0427972 19.6879 1.6221C19.6386 2.30765 19.2446 4.70706 18.8505 7.30235L17.6189 14.9903C17.6189 14.9903 17.5204 16.1165 16.683 16.3124C15.8455 16.5083 14.4662 15.6268 14.2199 15.431C14.0229 15.2841 10.5253 13.0805 9.24454 12.0032C8.89971 11.7094 8.50563 11.1218 9.2938 10.4363C11.0672 8.82035 13.1854 6.81267 14.4662 5.53951C15.0574 4.9519 15.6485 3.58081 13.1854 5.24571L6.23961 9.89764C6.23961 9.89764 5.45143 10.3873 3.9736 9.9466C2.49576 9.50589 0.771623 8.91828 0.771623 8.91828C0.771623 8.91828 -0.410644 8.18377 1.60906 7.40029Z" fill="white"/>
</svg>
